<svg xmlns="http://www.w3.org/2000/svg" viewBox="0 0 2000 2000"><ellipse cx="502.044" cy="1584.545" fill="#1b136a" rx="164.838" ry="186.31" transform="rotate(-10.514 502.044 1584.545)"/><circle cx="1504.256" cy="399.153" r="33.364" fill="#1b136a"/><path fill="#b4b2fa" d="M514.29124,1103.43338c-25.04703-15.16392-44.41595-37.95856-55.35-65.12001,4.77156-24.0992,8.36088-63.819-9.71758-103.48956-5.60551-12.3003-24.15034-52.99353-49.47379-52.75746-3.44007.03212-6.02961.71332-7.44408,1.26294-15.49094,6.01743-63.55785,65.86663-41.52693,105.61417,22.03158,39.74793,60.14934,83.43487,90.64322,63.07619,0,0,27.69113,63.42553,72.86915,51.41374Z"/><path fill="#4a53e2" d="M644.44761,608.76601c-60.93123,153.48238-121.86246,306.96477-182.79368,460.44715-104.21955,64.21576-208.43807,128.43152-312.65761,192.64727,38.36842,100.09101,76.73685,200.18252,115.10527,300.27353,184.33447,65.05926,368.66895,130.118,553.00342,195.17726,316.31788-133.90812,632.63679-267.81624,948.95467-401.72436,20.71427-125.24258,41.42751-250.48568,62.14178-375.72826-19.86872-9.84388-39.73642-19.68775-59.60515-29.53163-58.17785-102.59338-116.35671-205.18677-174.53456-307.78015-108.8276-44.91141-217.65622-89.82333-326.48382-134.73475-207.7101,33.65148-415.42021,67.30245-623.13031,100.95393Z"/><polygon fill="#1b136a" points="644.448 608.766 1109.871 734.505 981.21 1188.669 461.654 1069.213 644.448 608.766"/><path fill="#1b136a" d="M1142.64002,764.22218c-26.56252,135.22653-53.12402,270.45306-79.68653,405.6796l356.57472-120.10951c-8.34705-112.08504-16.69308-224.17007-25.04013-336.25511-83.94901,16.89501-167.89904,33.79002-251.84805,50.68503Z"/><path fill="#1b136a" d="M1431.89951,706.47375c6.51078,110.68636,13.02156,221.37222,19.53235,332.05858l247.72565-86.3287c-44.38435-95.20945-88.76973-190.41891-133.15408-285.62836-44.7013,13.29966-89.40261,26.59881-134.10391,39.89848Z"/><path fill="#b4b2fa" d="M213.90546,1533.49914c2.37378,11.17647,4.7476,22.35295,7.12137,33.52942,3.70232,17.43173,16.18609,31.693,32.97462,37.66939,183.32215,65.25916,366.6443,130.51875,549.96646,195.77787,325.11103-142.97517,650.22108-285.95083,975.33206-428.92602,13.3729-5.88105,22.26739-18.82184,22.966-33.41406.86889-18.14895,1.73765-36.29796,2.60649-54.44694.79748-16.65846-17.41938-27.37667-31.59369-18.58866l-91.63739,56.81479s-197.67912-176.41019-312.78439,132.62089l-155.14126,67.87449s-240.21801-234.49449-372.83941,167.23038c-200.63287-59.75961-401.26667-119.51875-601.89964-179.27831-14.42852-4.29761-28.19898,8.41029-25.07122,23.13675Z"/><ellipse cx="1075.61" cy="1689.641" fill="#1b136a" rx="164.838" ry="186.31" transform="rotate(-10.514 1075.61 1689.64)"/><ellipse cx="1585.159" cy="1503.977" fill="#1b136a" rx="164.838" ry="186.31" transform="rotate(-10.514 1585.159 1503.977)"/><ellipse cx="1109.871" cy="1677.966" fill="#b4b2fa" rx="82.942" ry="93.746" transform="rotate(-10.514 1109.871 1677.966)"/><ellipse cx="1596.573" cy="1486.014" fill="#b4b2fa" rx="82.942" ry="93.746" transform="rotate(-10.514 1596.573 1486.014)"/><path fill="#1b136a" d="M916.86235,1239.28205l-116.25856,254.93883q-560.74627-190.88528-611.30703-206.99339c-1.10013-.34456-1.5183,1.31279-.46929,1.70335,86.2796,32.0765,117.44842,41.26456,612.65969,211.75787.38341,13.06245,2.5199,66.64489,4.00687,97.95619,1.29773,27.3267,1.06089,30.77005,2.88016,36.52346.37216,1.17987,2.26262,1.33988,2.55503,0,1.2603-5.77171,1.0371-3.79889-2.09699-72.69521-.29438-5.81185-3.04733-61.78925-3.45067-64.62728l117.15829-255.24403c1.74834-3.82181-3.91792-7.16718-5.67751-3.3198Z"/><path fill="#1b136a" d="M1063.13446,1347.03737l-14.65437-121.56544c-.49485-3.96751-1.80866-6.79348-2.75747-10.62501-.24231-.97692-1.72483-.75404-1.73505.23465-.12832,12.34063-1.25819,1.58271,1.05412,22.8588,3.23385,29.75934,3.47661,32.3253,7.43301,66.49678,8.53461,73.72569,7.75165,75.06364,11.06976,87.81274.57869,2.22479,3.90258,1.71665,3.95268-.53473.32922-14.8333-2.63171-29.96923-4.36267-44.67779Z"/><path fill="#1b136a" d="M1475.14284,1220.03674c-1.49613-6.69559-20.73926-92.93167-27.02772-119.25784-1.36902-5.73119-1.97327-13.3927-5.39736-18.24614-.6748-.95699-2.52743-1.04185-2.78099.36296-.99993,5.55124,1.29336,11.86009,2.40985,17.32596,5.56045,27.21911.077,1.71301,21.41565,99.32879,6.35531,29.06323,6.69534,33.54604,10.18639,38.46709.78726,1.11086,2.93026,1.21055,3.22881-.42175,1.03878-5.67137-.79442-12.00886-2.03462-17.55907Z"/><path fill="#fa0" d="M763.22711,452.11336l33.78082,177.18621c145.44462,30.73502,290.88923,61.47056,436.33385,92.20558,105.40862-22.90276,210.81724-45.80501,316.22587-68.70777l47.00482-200.68402-465.5107-67.90108-367.83465,67.90108Z"/><path fill="#b4b2fa" d="M817.65497,349.68806c3.97202,20.09397,7.94409,40.18791,11.91607,60.2819,4.25431,21.52224,20.71725,38.55907,42.08119,43.54787l319.69669,74.65394c8.88287,2.07428,18.13866,1.94079,26.95802-.38879l230.63346-60.92063c21.72023-5.73729,37.88715-23.93244,41.02945-46.17678,2.94664-20.85924,5.89328-41.71845,8.83992-62.57768,4.22789-29.9292-16.12693-57.78909-45.92515-62.8584-121.94883-20.74607-243.89715-41.49192-365.84611-62.23804-7.57098-1.28799-15.32628-1.0004-22.78108.8448l-205.23979,50.80056c-28.93523,7.16199-47.14313,35.78869-41.36268,65.03127Z"/><polygon fill="#4a53e2" points="961.845 153.181 961.845 292.782 1228.338 326.145 1431.9 295.71 1437.278 153.181 1133.251 125.963 961.845 153.181"/><path fill="#1b136a" d="M1465.32262,317.4154l-236.75186,75.27357c-4.66998,1.48479-9.65512,1.67577-14.42501.55263l-365.85307-86.14555c-19.18574-4.51757-36.62483,12.3031-32.80264,31.63938l17.67698,89.42685c2.06508,10.44715,10.05644,18.717,20.42674,21.13862l344.7162,80.49637c4.31185,1.00688,8.80472.94208,13.08574-.18872l255.98955-67.61831c10.54325-2.78495,18.39086-11.61706,19.91617-22.41473l13.07223-92.53818c2.79277-19.77003-16.02329-35.67165-35.05102-29.62192Z"/><path fill="#ff6a00" d="M829.5373,381.1946l-113.2281,41.28846c9.08115,65.05108,18.1623,130.10266,27.24345,195.15374,115.09402,31.96653,230.18907,63.93357,345.28309,95.9001,35.65696.43197,71.31494.86344,106.9719,1.29541,3.8576-87.85773,7.71622-175.71546,11.57381-263.57319l-377.84416-70.06452Z"/><path fill="#1b136a" d="M1207.38146,451.25912l-126.99092,56.55271,8.4452,205.72507c35.65696.43197,71.31494.86344,106.9719,1.29541,3.8576-87.85773,7.71622-175.71546,11.57381-263.57319Z"/><polygon fill="#1b136a" points="961.845 153.181 1224.897 202.595 1437.278 153.181 1431.9 295.71 1228.338 326.145 961.845 292.782 961.845 153.181"/><path fill="#e5e5ff" d="M1219.9276,241.09828c-.4969-7.58381-.45804-15.52087-2.10414-22.96002-.40999-1.84854-2.91901-1.23253-3.08567.41715-.70131,6.94946-.15316,8.21612,1.83525,46.88878,1.66694,32.51389,1.97589,38.71655,3.73388,45.46352.33024,1.26371,2.54685,1.44519,2.7452,0,.95979-6.98695.87351-8.69158-3.12452-69.80943Z"/><path fill="#e5e5ff" d="M1220.812,400.57512c-.07055-1.88841-2.9231-1.90273-2.94457,0-.20766,18.26013-.50387,75.15963,1.59191,93.84401.15336,1.37209,2.03769,1.40276,2.15935,0,1.61765-18.68546-.13415-75.6359-.80669-93.84401Z"/><path fill="#1b136a" d="M1047.85197,522.6666c-8.74985-4.23493-12.60564-4.77161-60.36787-18.10453l-187.56635-52.07194c-58.48128-16.1922-59.78533-17.28673-70.79964-18.8325-.83225-.11656-1.60111,1.11444-.6431,1.52545,9.18813,3.94073,294.57873,83.48793,284.1484,80.57604,11.42454,3.18944,22.95132,7.34406,34.80733,8.46156.81589.07719,1.14818-1.20237.42124-1.55408Z"/><path fill="#1b136a" d="M1593.9387,452.44974c-8.34873.89861-.58441-1.23786-314.57977,110.66591-21.8328-6.94633-43.69115-13.81292-65.54337-20.6974-1.99781-.6293-2.82904,2.46864-.86088,3.12299,21.51891,7.16206,43.03271,14.33947,64.57207,21.44172.33725.51212.01076.04047-52.98599,146.9348-1.07252,2.97525,3.67049,4.25992,4.73279,1.30461,17.78707-49.44432,35.57108-98.88864,53.13424-148.41168l278.64675-99.73009c10.89902-4.0038,23.47072-6.95605,33.23075-13.35078.51632-.33842.38239-1.3588-.3466-1.28007Z"/><path fill="#ff6a00" d="M1828.20211,983.85841c-1.49805,0-2.93555-.8457-3.61719-2.29102l-389.83984-824.38672h-470.8125l-316.20312,453.87305c-1.26172,1.8125-3.75391,2.26172-5.56836.99414-1.8125-1.26172-2.25781-3.75586-.99414-5.56836l317.39648-455.58594c.74805-1.07227,1.97266-1.71289,3.28125-1.71289h475.43359c1.54688,0,2.95508.89258,3.61523,2.28906l390.92188,826.67773c1.26677,2.67748-.7134,5.71094-3.61328,5.71094Z"/><path fill="#ff6a00" d="M1394.39959,591.42882l14.73273,21.42943c4.09775,5.96037,11.69871,8.40901,18.50508,5.96139l72.55545-26.09137c6.5982-2.37275,7.68091-11.24758,1.84669-15.13707l-25.82115-17.2141-14.78653,6.4075,17.35205,11.68607c2.85977,1.92597,2.36276,6.27503-.85781,7.50613l-46.18025,17.65298c-3.8955,1.48911-8.29548-.07593-10.37564-3.69053l-9.71967-16.88947-17.25095,8.37903Z"/><ellipse cx="1467.868" cy="562.513" fill="#ff6a00" rx="19.346" ry="7.886" transform="rotate(-16.008 1467.868 562.513)"/><ellipse cx="1401.822" cy="585.432" fill="#ff6a00" rx="19.346" ry="7.886" transform="rotate(-16.008 1401.822 585.432)"/><path fill="#1b136a" d="M1409.87006,585.14782c-4.23951-2.82763-9.80147-.51504-10.97161,4.28292-.22391.91916,1.1809,1.31074,1.42014.39159.77608-2.99281,3.84969-5.09269,7.21319-3.99869,1.60898.52397,1.44652,1.023,2.88221,1.57964.42635.16461.84248-.32411.72387-.7249-.21573-.73001-.64617-1.11444-1.2678-1.53057Z"/><path fill="#1b136a" d="M1475.35311,561.86727c-6.06366-1.60949-11.74663,2.61766-11.88156,5.84212-.02761.63288.78522,1.1492,1.32915.76273.45191-.32206.86599-.5838,1.23202-1.00811,2.32189-2.69194,6.593-3.45967,9.4073-2.05251,3.07034,1.39236,4.60562-2.30051-.08691-3.54423Z"/><path fill="#1b136a" d="M1493.02567,586.60477c-4.07398-.29036-27.75318,10.63127-32.30137,12.80634-.25254.12065-.07464.52706.18915.44833,4.60958-1.38023,29.69035-9.27314,32.52835-12.24861.36807-.38648.08691-.96977-.41613-1.00606Z"/><path fill="#1b136a" d="M1573.1498,501.79386c-11.24276,37.44121-16.51406,57.14292-25.7957,90.95362-2.80144,10.2099-6.62632,20.67235-8.22947,31.13786-.11553.75659.8435,1.01322,1.13591.31286,3.95575-9.45842,6.08136-20.01749,8.91859-29.87005,10.11941-35.14568,15.79096-54.378,25.67506-92.06499.28935-1.10217-1.3772-1.55766-1.70438-.46929Z"/><path fill="#e5e5ff" d="M1526.29528,397.11371c-2.26673-12.17859-14.58266-19.76551-19.99959-19.03698-.21471.02863-.23004.3558-.0593.44884,2.09559,1.13552,4.14897,1.15518,7.84607,3.89849,4.77673,3.54295,8.08992,9.9878,8.93188,15.40278.22493,1.44264.22391,2.88221.17074,4.33609-.05419,1.49683-.32922,3.01052.2597,4.39948.29548.69883,1.22793.6063,1.69518.2188,2.12946-1.76573,1.66091-6.94373,1.15534-9.66751Z"/><path fill="#e5e5ff" d="M985.72144,221.19888c-1.59181-11.61722-3.04569-23.9536-3.94655-26.09374-.33944-.80669-1.07354-1.07866-1.42628-1.97021-.08895-.22391-.38341-.18352-.41101.05521-.1094.94779-.73001,1.41657-.86599,2.28102-.28893,1.84825.93754,10.28581,1.07968,11.40307,3.7672,29.65291,3.86792,35.45618,6.7306,44.73198.3282,1.06332,1.88739.85423,1.92829-.26072.36807-10.04018-1.73096-20.23986-3.08874-30.14662Z"/><path fill="#e5e5ff" d="M1177.05541,521.61555c-.0317-1.13387-1.78106-1.14102-1.76674,0,1.35571,111.7716,1.56271,133.80398,3.39035,155.77874.06748.81129,1.24122.83072,1.27598,0,.84703-19.77165.62351-31.18734-2.89959-155.77874Z"/><path fill="#e5e5ff" d="M639.71549,696.9159c-11.38882,29.49559-5.12346,11.61862-22.0383,60.85148-.16919.49245-66.19883,195.07875-84.92747,255.08913-.28526.91507,1.10217,1.27189,1.42014.39159,26.73819-74.04103,70.41168-205.59792,95.03615-280.36851,3.00748-9.13447,12.17066-40.22991,10.50947-35.96369Z"/><path fill="#e5e5ff" d="M1153.62968,847.00334c-1.94869,6.25305-.52232.07814-23.95943,143.75148-2.57037,15.75654-6.08239,31.85866-6.78581,47.8294-.05419,1.23151,1.7964,1.44519,2.1205.28679,3.93023-14.06754,3.60225-16.64935,16.051-96.52838,14.71816-94.44103,14.22654-89.22334,14.30982-95.10414.01431-1.01578-1.44366-1.17374-1.73607-.23516Z"/><path fill="#e5e5ff" d="M1112.97921,1081.84749c-.46313,26.91251-.7593,29.89504-.05623,35.64878.08384.68707,1.22077,1.02344,1.3496.18301.85318-5.54858.68666-8.01158,1.0623-35.83179.02045-1.51727-2.3301-1.51676-2.35566,0Z"/><path fill="#e5e5ff" d="M1468.16139,843.54602c-.11247-.9212-1.56328-.95239-1.47229,0,2.13801,22.30635,8.80754,92.41356,12.69643,114.4821.09713.54546.98766.41817.96517-.13087-.93084-22.17073-9.51059-92.32325-12.18931-114.35123Z"/><path fill="#e5e5ff" d="M973.1068,1564.70153c.52144-.71467-.66151-1.63587-1.23304-.95136-42.67793,51.12876-52.70993,123.88736-28.89364,185.63448,5.28218,13.69361,16.83231,37.42941,27.46123,47.55079.85168.81231,2.17674-.21215,1.61849-1.24838-5.45665-10.12937-29.50283-38.45312-36.58736-89.21448-6.57098-47.09301,5.25337-97.38979,37.63432-141.77105Z"/><path fill="#e5e5ff" d="M1093.87526,1848.70884c-5.12961-.93347-27.78477,7.16803-56.16368-15.73507-.87315-.70445-2.02235.38699-1.24838,1.2494,11.96323,13.33306,32.28168,20.16831,50.45549,18.80694,2.47426-.18557,5.15812-.28474,7.30827-1.63025.9897-.61857.96108-2.45177-.35171-2.69101Z"/><path fill="#e5e5ff" d="M1462.92455,1419.12809c7.92672-22.17144,15.06765-27.73238,18.17662-36.7898.01329-.03885-.03681-.08077-.07157-.05572-5.12847,3.65465-8.64049,10.02024-11.71286,15.36035-22.56566,39.23109-25.18644,87.40465-10.62296,127.27516,2.25751,6.1785,4.78902,13.5706,9.35107,18.44296.76886.821,2.03564-.04448,1.80457-1.05054-2.21498-9.66399-8.32302-15.72741-13.19844-39.16693-5.6145-26.9946-3.72738-56.05426,6.27358-84.01547Z"/><path fill="#e5e5ff" d="M1513.49762,1609.3967c-1.07654-2.82457-.65867-1.92338-27.74853-27.37841-1.19419-1.12262-2.97525.64413-1.80355,1.80457,26.17539,25.92414,25.53787,25.82905,28.3446,26.78132.67173.228,1.47024-.51683,1.20748-1.20748Z"/><path fill="#e5e5ff" d="M488.44716,1731.73203c-4.93747-2.23453-7.90234-.52501-23.00551-6.16674-24.04444-8.98409-44.34001-27.23718-55.4991-50.89514-.35171-.74586-1.4365-.09611-1.10217.64413,13.04838,28.8051,39.61913,49.56693,67.49927,56.26081,3.65107.87724,8.16097,2.35055,11.90815,1.68188.67889-.12167.83941-1.23509.19937-1.52494Z"/><polygon fill="#1b136a" points="384.856 1553.813 363.384 1421.309 655.316 1500.792 627.341 1626.038 384.856 1553.813"/><path fill="#4a53e2" d="M422.92218,1553.92948c-5.51178,0-7.4078-3.97849-7.4078-6.77178v-83.21118c0-3.73995,3.03183-6.77178,6.77178-6.77178,5.51178,0,7.4078,3.97849,7.4078,6.77178v83.21118c0,3.73995-3.03183,6.77178-6.77178,6.77178Z"/><path fill="#4a53e2" d="M469.06157,1572.05094c-5.51178,0-7.4078-3.97849-7.4078-6.77178v-83.21118c0-3.73995,3.03183-6.77178,6.77178-6.77178,5.51178,0,7.4078,3.97849,7.4078,6.77178v83.21118c0,3.73995-3.03183,6.77178-6.77178,6.77178Z"/><path fill="#4a53e2" d="M509.6678,1579.59225c-5.51178,0-7.4078-3.97849-7.4078-6.77178v-83.21118c0-3.73995,3.03183-6.77178,6.77178-6.77178,5.51178,0,7.4078,3.97849,7.4078,6.77178v83.21118c0,3.73995-3.03183,6.77178-6.77178,6.77178Z"/><path fill="#4a53e2" d="M555.86503,1597.54639c-5.51178,0-7.4078-3.97849-7.4078-6.77178v-83.21118c0-3.73995,3.03183-6.77178,6.77178-6.77178,5.51178,0,7.4078,3.97849,7.4078,6.77178v83.21118c0,3.73995-3.03183,6.77178-6.77178,6.77178Z"/><path fill="#4a53e2" d="M597.56966,1605.88732c-5.51178,0-7.4078-3.97849-7.4078-6.77178v-83.21118c0-3.73995,3.03183-6.77178,6.77178-6.77178,5.51178,0,7.4078,3.97849,7.4078,6.77178v83.21118c0,3.73995-3.03183,6.77178-6.77178,6.77178Z"/><polygon fill="#e5e5ff" points="363.384 1421.309 234.933 1386.277 256.62 1471.354 375.557 1496.432 363.384 1421.309"/><polygon fill="#e5e5ff" points="655.316 1500.792 639.4 1572.051 756.658 1605.887 775.842 1527.239 655.316 1500.792"/><path fill="#1b136a" d="M818.93172,1699.89943c-5.72658,5.12029-9.30711,14.19224-12.2619,21.14266-9.16238,21.55484-14.68795,55.40038-4.5099,76.15509.45804.93194,1.94158.46571,1.92113-.52041-.29402-13.9902-4.24377-26.58043.07668-49.65392,5.28422-28.25107,15.41377-38.9894,17.72777-45.40473.64004-1.77492-1.74221-2.80144-2.95378-1.71869Z"/><rect width="89.248" height="21.781" x="1311.747" y="1138.551" fill="#1b136a" rx="10.402" ry="10.402" transform="rotate(-21.906 1356.37 1149.442)"/><rect width="89.248" height="21.781" x="1586.58" y="1009.019" fill="#1b136a" rx="10.402" ry="10.402" transform="rotate(-21.906 1631.204 1019.91)"/><path fill="#b4b2fa" d="M1036.2076,1174.38549c29.27816-.29514,57.5556-10.04901,80.79762-27.85649,8.16603-23.17014,25.30432-59.18159,61.06521-84.11636,11.08813-7.73126,47.77119-33.30864,69.44481-20.20951,2.94422,1.7795,4.82594,3.68448,5.76336,4.8778,10.26741,13.06748,21.15647,89.05289-18.0452,112.04111-39.20243,22.98822-94.25486,41.17453-110.1308,8.12446,0,0-56.13096,40.48347-88.895,7.13898Z"/><rect width="90.787" height="24.396" x="957.186" y="374.735" fill="#b4b2fa" rx="11.651" ry="11.651" transform="rotate(9.031 1002.58 386.933)"/><path fill="#1b136a" d="M1240.08056,1062.06312c-7.32259-2.95838-17.23496-1.35931-24.7968-.01176-22.27532,3.96684-42.28555,16.97879-53.40927,32.0611-1.70949,2.31783-5.57424,6.19179-4.88513,9.24372.02249.10378.14314.16461.24129.13752,2.75031-.7571,4.59476-5.23838,6.30834-7.33281,14.39685-17.59647,32.28173-27.61222,51.91653-31.20687,14.04743-2.57188,17.80104-.39733,24.62503-1.37669.86395-.12371.61652-1.26525,0-1.51421Z"/><path fill="#1b136a" d="M1239.0019,1113.72456c-2.24566,6.10747-1.3806,3.3642-2.60922,8.73711-1.77836,7.75987-1.42036,5.59585-1.48456,8.85264-.01022.54904.85679.84963,1.09808.29701,1.18846-2.72354.96042-1.93878,1.47433-4.38977,2.32137-11.06131,1.75476-7.78265,2.19616-13.40497.03272-.41101-.54904-.43197-.6748-.09202Z"/><path fill="#1b136a" d="M394.34652,898.99553c-7.04449,2.38224-13.47143,9.28819-18.03654,14.91611-18.39852,22.68515-18.28132,53.79487-5.81962,71.07979.24334.33791.86088.15285.71774-.30213-5.32962-16.93677-8.17602-31.16859-2.72475-48.28949,3.23648-10.17037,9.38458-20.12686,17.97315-28.03225,2.87198-2.64296,6.28687-4.64946,9.03514-7.40336.79953-.80107-.00204-2.35515-1.14511-1.96867Z"/><path fill="#1b136a" d="M389.3888,1006.28745c-7.06137-10.47692-5.87144-8.93925-7.82459-10.94605-.63595-.65282-1.17579-1.38129-1.73812-2.09852-.39363-.50252-1.11444.137-.84759.65435,3.03886,5.88166-.43815.49404,5.07019,9.48705,4.23968,6.92961,4.55405,7.95136,6.10999,8.68905.71365.33842,1.63587-.05777,1.62565-.93245-.02352-1.85467-1.39663-3.37195-2.39553-4.85344Z"/><path fill="#1b136a" d="M369.91064,1139.09187c-21.38292,12.30385-30.93726,19.71011-97.22618,63.81906-10.39599,6.91771-21.09358,13.60486-30.80148,21.47853-.35785.29088.09815.81794.47645.61703,10.77262-5.74934,12.61283-7.3851,64.48619-41.74139,21.31341-14.11862,43.34353-27.6059,63.70915-43.07156.6339-.48207.08895-1.52392-.64413-1.10166Z"/><path fill="#1b136a" d="M421.2127,1105.26964c-4.31769,1.59805-7.843,4.75426-11.48895,7.49589-3.67867,2.76565-7.64567,5.35851-10.97877,8.53518-1.35573,1.29234.37421,3.44198,1.97021,2.55299,4.00687-2.23195,7.64567-5.24451,11.36422-7.92684,5.85807-4.22326,8.10273-5.57915,10.57389-8.7826.67071-.87008-.4468-2.24217-1.44059-1.87461Z"/><path fill="#1b136a" d="M1790.09749,1034.82631c-.09815-.14621-.33024-.21164-.46213-.0593-3.78603,4.37085-2.9364,11.34581-3.29424,16.80452-5.67817,86.61641-8.58859,138.3597-8.56483,137.95947-.42328,7.12935-1.51216,15.14309.21778,22.13543.33842,1.36596,2.12357,1.14511,2.55605,0,2.39685-6.34513,2.12806-10.5223,4.14797-43.91813,4.18135-69.05486,2.89031-46.88891,6.48727-113.06452.33024-6.06501,2.52334-14.5143-1.08786-19.85748Z"/><path fill="#1b136a" d="M596.96599,526.9577c-8.82759-3.46294-20.37482-2.3531-29.73407-2.67875-14.69874-.51033-207.05483-7.4249-220.9883-5.73885-1.44264.17483-2.10312,2.45892-.3783,2.79581,13.47683,2.6331,234.18997,10.6551,219.28085,10.10255,22.14562.82074,26.97428,1.01336,31.81981-.50559,2.05814-.64515,1.84547-3.2513,0-3.97518Z"/><path fill="#1b136a" d="M637.4314,444.80458c-12.75778-8.72381-28.65235-13.41673-42.89264-19.20006-14.81387-6.01644-29.6216-12.00886-44.55919-17.71192-2.88118-1.10013-4.96693,3.76251-2.11744,5.02316,14.35991,6.35282,28.82514,12.42243,43.31592,18.47209,28.90855,12.06778,35.6457,15.23686,44.77901,16.91495,2.13482.39261,3.3106-2.24217,1.47433-3.49822Z"/><path fill="#1b136a" d="M693.85375,366.69411c-16.95891-26.03086-36.91863-50.09356-56.03281-74.54886-19.41375-24.83923-38.91542-49.60024-58.54694-74.2677-2.0244-2.54481-6.54145.88797-4.54773,3.50844,18.85141,24.77175,37.81734,49.44534,56.88346,74.05043,19.25731,24.85098,37.89811,50.4514,59.2381,73.57756,1.46002,1.58169,4.20011-.48667,3.00592-2.31988Z"/><path fill="#1b136a" d="M1647.58211,213.7122c-.07566-.52246-.70138-.60425-1.0807-.44015-3.85146,1.6645-5.70614,6.50567-7.71622,10.00082-15.32248,26.63177-17.04144,29.86245-37.30817,66.27031-4.73279,8.50246-10.83358,17.21145-13.31602,26.71179-.36398,1.39152,1.42526,2.5172,2.45995,1.43241,6.98314-7.32259,11.31003-17.43331,16.20334-26.19291,42.54141-76.14919,41.30159-74.066,40.75782-77.78227Z"/><path fill="#1b136a" d="M1842.4506,236.66966c-24.42216,19.01734-155.14963,122.15336-185.34872,147.79107-1.46922,1.24735.49894,3.85044,2.08165,2.69766,33.76944-24.60646,167.3635-129.61577,187.84854-145.90828,3.27379-2.60513-1.34142-7.1043-4.58147-4.58045Z"/><path fill="#1b136a" d="M1781.30568,458.90224c-7.35532-1.71216-11.16668-.29741-49.18871,6.43052-17.13374,3.03148-34.39223,5.84876-51.26934,10.08466-2.71964.68196-2.24115,5.29666.67889,5.01242,18.4027-1.79226,34.74567-4.84131,75.97105-11.81204,7.98818-1.35113,17.31471-1.84649,24.25389-6.30681,1.28416-.82612,1.18601-3.02841-.44578-3.40875Z"/></svg>