<svg xmlns="http://www.w3.org/2000/svg" viewBox="0 0 2148.421 668.396"><path fill="#34a853" d="M2075.425 317.985h5.5v16.78h-5.5zM2087.319 340.088h15.787v5.5h-15.787zM2075.425 353.107h5.5v15.87h-5.5zM2052.814 340.089h16.686v5.5h-16.686zM1222.913 210.45h5.5v16.78h-5.5zM1234.808 232.552h15.787v5.5h-15.787zM1222.913 245.572h5.5v15.87h-5.5zM1200.302 232.554h16.687v5.5h-16.687zM367.85 417.444h5.5v16.78h-5.5zM379.744 439.547h15.788v5.5h-15.788zM367.85 452.566h5.5v15.87h-5.5zM345.239 439.548h16.686v5.5h-16.686zM617.297 278.23l-5.832-3.87 88.75-133.7.452-.35c.206-.16 5.134-3.979 13.383-9.425 3.031-2.002 14.23-9.995 27.198-19.251 22.058-15.745 49.51-35.34 54.884-38.386 9.674-5.485 15.507-5.79 38.12 2.507 13.7 5.026 39.047 10.754 61.41 15.806 13.342 3.015 24.863 5.619 31.979 7.641a57.132 57.132 0 0 0 15.196 1.857c10.118.25 19.675.487 31.964 16.319 16.564 21.343 53.75 75.09 54.124 75.63l-5.758 3.983c-.373-.539-37.45-54.129-53.898-75.32-10.251-13.208-17.11-13.378-26.605-13.613a63.729 63.729 0 0 1-16.938-2.122c-6.93-1.97-18.366-4.553-31.607-7.545-22.57-5.101-48.152-10.881-62.28-16.064-21.684-7.955-25.217-6.977-32.254-2.99-5.057 2.868-33.501 23.17-54.27 37.995-13.023 9.295-24.27 17.323-27.408 19.395-6.63 4.376-11.125 7.728-12.5 8.771Z" class="color445462 svgShape"/><path fill="#34a853" d="m949.618 188.431-35.075-26.123-95.53-3.3.242-6.996 97.716 3.374 36.829 27.429-4.182 5.616z" class="color445462 svgShape"/><path fill="#34a853" d="M840.726 194.3c-14.377-12.072-27.938-44.193-28.508-45.554l6.457-2.705c.133.317 13.474 31.916 26.554 42.898Z" class="color445462 svgShape"/><path fill="#34a853" d="M878.793 195.936c-18.188 0-62.587-1.87-64.788-1.964l.297-6.995c17.473.74 64.203 2.512 70.496 1.81.909-.102 2.56-.33 4.797-.639 30.04-4.145 71.918-8.74 88.705-.84l-2.98 6.334c-11.182-5.261-39.702-4.777-84.768 1.442-2.324.32-4.037.556-4.98.661-1.21.134-3.593.191-6.78.191Z" class="color445462 svgShape"/><path fill="#34a853" d="m738.269 361.923-2.329-6.604c65.747-23.175 90.45-86.05 90.692-86.682l.6-1.57 70.333-22.596 26.277 5.807 39.042-3.488c1.67-.15 7.905-2.281 20.401-7.817a10.505 10.505 0 0 0 6.136-7.858 71.458 71.458 0 0 0 .78-15.535c-.098-.915-.16-2.158-.23-3.598-.085-1.727-.182-3.685-.365-5.584a10.008 10.008 0 0 0-5.22-7.808l-9.251-5.041 3.35-6.149 9.25 5.041a17.003 17.003 0 0 1 8.84 13.287c.198 2.061.304 4.196.388 5.91.065 1.33.122 2.478.2 3.19a77.355 77.355 0 0 1-.84 17.453 17.482 17.482 0 0 1-10.202 13.092c-18.007 7.978-21.474 8.288-22.614 8.39l-40.12 3.586-25.484-5.634-65.379 21.006a166.824 166.824 0 0 1-20.73 34.669c-13.696 17.882-37.57 41.858-73.525 54.533Z" class="color445462 svgShape"/><path fill="#34a853" d="M1024.96 381.102a17.184 17.184 0 0 1-1.745-.09L920.98 370.508c-9.716-.998-16.76-10.203-15.7-20.52l10.317-97.546 6.963.737-10.317 97.535c-.664 6.466 3.576 12.225 9.452 12.829l102.236 10.504a10.131 10.131 0 0 0 7.79-2.582 12.328 12.328 0 0 0 4.075-8.068l15.57-151.542c.665-6.476-3.575-12.237-9.453-12.84l-73.575-7.559.715-6.965 73.576 7.559c9.718.999 16.76 10.205 15.701 20.52l-15.57 151.542a19.313 19.313 0 0 1-6.421 12.616 17.175 17.175 0 0 1-11.38 4.374Z" class="color445462 svgShape"/><path fill="#34a853" d="M910.947 310.916c-.869-.17-21.351-4.382-25.885-23.411-4.189-17.588-.693-36.152-.543-36.934l6.875 1.327c-.053.279-3.341 17.946.479 33.984 3.501 14.695 20.249 18.13 20.418 18.163Zm-19.553-59.019-3.437-.663 3.438.661v.002Z" class="color445462 svgShape"/><path fill="#34a853" d="M892.474 303.3c-5.555 0-16.751-1.126-25.649-9.204-12.256-11.13-9.28-33.624-9.146-34.576l6.934.962c-.027.198-2.59 19.795 6.92 28.43 9.729 8.834 23.39 7.288 23.526 7.273l.845 6.949a30.368 30.368 0 0 1-3.43.166ZM907.297 191.133l-16.829-15.804-43.605-6.652 1.057-6.922 45.755 6.98 18.415 17.294-4.793 5.104zM732.664 435.127l-5.744-4.002 35.993-51.648-159.238-102.954-36.855 51.044-5.675-4.097 40.747-56.438 170.91 110.501-40.138 57.594zM943.734 237.226c-1.237-17.32 1.301-36.673 1.41-37.489l.43-3.223 20.612 1.213-.41 6.988-14.067-.827c-.662 6.204-1.888 20.29-.992 32.84ZM983.192 653.169a7.037 7.037 0 0 1-4.983-2.07l-3.505-3.506H959.37v-34.037l4.94-4.94-6.624-6.625.155-46.783 4.473-4.472-5.78-5.78v-4.017a37.343 37.343 0 0 1-35.246-37.239v-40.352a37.338 37.338 0 0 1 37.296-37.295h29.76a37.338 37.338 0 0 1 37.297 37.295V503.7a37.345 37.345 0 0 1-35.251 37.24l-.132 105.175a7.067 7.067 0 0 1-7.066 7.054Zm-16.82-12.577h11.232l5.555 5.556.106-.014.132-112.14h4.947a30.329 30.329 0 0 0 30.295-30.294v-40.352a30.329 30.329 0 0 0-30.295-30.294h-29.76a30.33 30.33 0 0 0-30.295 30.294V503.7a30.33 30.33 0 0 0 30.295 30.294h4.951v8.062l8.679 8.68-7.381 7.382-.138 40.983 9.516 9.515-7.839 7.84Z" class="color445462 svgShape"/><path fill="#34a853" d="M973.464 482.515c-9.254 0-16.783-8.888-16.783-19.81s7.529-19.81 16.783-19.81c9.255 0 16.784 8.886 16.784 19.81s-7.53 19.81-16.784 19.81Zm0-32.618c-5.394 0-9.781 5.745-9.781 12.807s4.387 12.809 9.78 12.809c5.395 0 9.783-5.746 9.783-12.809s-4.388-12.808-9.782-12.808Z" class="color445462 svgShape"/><path fill="#34a853" d="M978.98 464.288a9.525 9.525 0 0 1-5.562-1.972 15.172 15.172 0 0 1-5.815-8.865c-6.64-27.449.485-79.514.792-81.717l6.933.965c-.073.527-7.247 52.95-.92 79.106a8.184 8.184 0 0 0 3.069 4.806 2.52 2.52 0 0 0 1.658.655c.453-.139 1.503-1.123 2.562-3.935l6.551 2.467c-1.695 4.504-4.074 7.25-7.07 8.164a7.54 7.54 0 0 1-2.198.326Z" class="color445462 svgShape"/><path fill="#34a853" d="m982.323 430.147-6.9-1.188 3.45.594-3.45-.592c.023-.136 2.314-13.88 2.08-40.944l7-.06c.241 27.787-2.081 41.614-2.18 42.19Z" class="color445462 svgShape"/><path fill="#34a853" d="M1027.41 394.415q-1.261 0-2.54-.11l-103.294-8.876.6-6.975 103.293 8.877a22.81 22.81 0 0 0 24.55-20.44l14.65-151.237 6.969.676-14.65 151.237a29.831 29.831 0 0 1-29.578 26.848Z" class="color445462 svgShape"/><path fill="#34a853" d="M1011.957 302.225q-.571 0-1.151-.058l-65.547-6.589a11.42 11.42 0 0 1-10.219-12.504l1.607-15.989 6.966.7-1.606 15.99a4.421 4.421 0 0 0 3.953 4.836l65.547 6.59a4.414 4.414 0 0 0 4.837-3.954l6.549-65.15a4.417 4.417 0 0 0-3.955-4.836l-17.754-1.785.7-6.967 17.756 1.785a11.42 11.42 0 0 1 10.22 12.504l-6.55 65.15a11.436 11.436 0 0 1-11.353 10.277ZM947.834 351.644a28.222 28.222 0 0 1-2.824-.142 25.866 25.866 0 0 1-15.38-6.828c-4.172-4.02-6.183-9.088-5.662-14.267.52-5.18 3.5-9.745 8.387-12.855a25.903 25.903 0 0 1 16.433-3.631c12.644 1.271 22.083 10.735 21.042 21.096-.965 9.582-10.56 16.627-21.996 16.627Zm-1.92-30.867a18.257 18.257 0 0 0-9.8 2.682 9.72 9.72 0 0 0-1.626 16.174 18.842 18.842 0 0 0 11.222 4.902c8.808.89 16.498-3.7 17.153-10.219v.001c.655-6.52-5.972-12.545-14.776-13.43a21.478 21.478 0 0 0-2.173-.11ZM1003.469 357.234q-1.421 0-2.862-.143a25.869 25.869 0 0 1-15.38-6.828c-4.17-4.022-6.182-9.088-5.662-14.267 1.043-10.361 12.19-17.745 24.82-16.486a25.87 25.87 0 0 1 15.382 6.829c4.17 4.021 6.181 9.088 5.66 14.267-.52 5.18-3.5 9.744-8.387 12.854a25.294 25.294 0 0 1-13.571 3.774Zm-1.95-30.867c-7.866 0-14.386 4.35-14.987 10.33a10.441 10.441 0 0 0 3.555 8.525 19.964 19.964 0 0 0 23.194 2.33 10.44 10.44 0 0 0 5.18-7.646 10.44 10.44 0 0 0-3.554-8.526 18.843 18.843 0 0 0-11.222-4.903 21.43 21.43 0 0 0-2.166-.11ZM602.444 666.225l-5.767-3.969 42.98-62.454 96.323-160.98-8.92-5.254-170.888-108.875L410.67 525.805l-.058.071-97.517 121.057-5.451-4.393 97.461-120.986 149.262-206.312 176.402 112.389 14.839 8.734-100.121 167.314-43.043 62.546zM791.278 572.355h-5.5a53.284 53.284 0 0 1 53.224-53.224v5.5a47.778 47.778 0 0 0-47.724 47.724ZM839.002 625.578v-5.5a47.778 47.778 0 0 0 47.724-47.724h5.5a53.284 53.284 0 0 1-53.224 53.224Z" class="color445462 svgShape"/><path fill="#4285f4" d="m773.903 369.925-1.482-5.297c32.031-8.964 54.378-22.638 70.325-43.034 4.93-6.305 14.034-12.412 27.06-18.157l2.218 5.034c-12.015 5.298-20.641 11.007-24.946 16.51-16.705 21.367-39.957 35.648-73.175 44.944ZM1606.702 575.105h-13.895a2.75 2.75 0 0 1-2.75-2.75 76.903 76.903 0 1 0-153.806 0 2.75 2.75 0 0 1-2.75 2.75h-431.004v-5.5h428.299a82.404 82.404 0 0 1 164.716 0h11.19c73.717 0 82.484-12.19 82.89-12.833a2.752 2.752 0 0 1 .865-1.17c18.045-14.177 29.519-36.559 32.309-63.02 3.085-29.264-5.062-59.517-21.26-78.953-13.201-15.843-49.01-27.042-106.435-33.287-49.029-5.332-104.022-5.843-141.522-5.324-.446.005-.9.008-1.35.008-48.993.004-123.856-35.802-178.28-66.002a211.017 211.017 0 0 0-97.212-26.243c-38.42-.876-73.196-1.281-103.377-1.197l-.016-5.5c30.222-.075 65.05.321 103.518 1.2a216.514 216.514 0 0 1 99.755 26.932c44.485 24.683 126.603 65.99 176.886 65.302 37.652-.515 92.886-.007 142.193 5.356 58.889 6.404 95.92 18.259 110.065 35.233 17.117 20.54 25.74 52.363 22.504 83.051-2.92 27.707-14.942 51.247-33.874 66.368-2.38 4.153-15.505 15.579-87.659 15.579Zm82.814-18.109-.004.013Zm.003-.01-.003.01Zm.088-.24ZM946.898 575.105h-28.243a2.75 2.75 0 0 1-2.75-2.75 76.903 76.903 0 0 0-153.806 0 2.75 2.75 0 0 1-2.75 2.75h-16.506a144.984 144.984 0 0 1-60.985-13.305l2.329-4.983a139.455 139.455 0 0 0 58.656 12.788h13.8a82.404 82.404 0 0 1 164.717 0h25.538Z" class="color008fe5 svgShape"/><path fill="#34a853" d="M839.002 585.825a13.471 13.471 0 1 1 13.472-13.47 13.486 13.486 0 0 1-13.472 13.47Zm0-21.442a7.971 7.971 0 1 0 7.972 7.971 7.98 7.98 0 0 0-7.972-7.971ZM864.794 569.605h12.245v5.5h-12.245zM800.965 569.605h12.245v5.5h-12.245zM836.252 534.316h5.5v12.245h-5.5zM836.252 598.146h5.5v12.245h-5.5z" class="color445462 svgShape"/><path fill="#34a853" d="M858.82 588.799h5.499v12.245h-5.499z" class="color445462 svgShape" transform="rotate(-44.997 861.57 594.921)"/><path fill="#34a853" d="M813.685 543.665h5.499v12.245h-5.499z" class="color445462 svgShape" transform="rotate(-45 816.435 549.787)"/><path fill="#34a853" d="M855.447 547.037h12.245v5.499h-12.245z" class="color445462 svgShape" transform="rotate(-45 861.57 549.787)"/><path fill="#34a853" d="M810.312 592.172h12.245v5.499h-12.245z" class="color445462 svgShape" transform="rotate(-45 816.435 594.921)"/><path fill="#34a853" d="M1566.22 572.355h-5.5a47.778 47.778 0 0 0-47.723-47.724v-5.5a53.284 53.284 0 0 1 53.224 53.224ZM1512.997 625.578a53.284 53.284 0 0 1-53.224-53.224h5.5a47.778 47.778 0 0 0 47.724 47.724ZM1512.997 585.825a13.471 13.471 0 1 1 13.472-13.47 13.486 13.486 0 0 1-13.472 13.47Zm0-21.442a7.971 7.971 0 1 0 7.972 7.971 7.98 7.98 0 0 0-7.972-7.971ZM1510.247 534.316h5.5v12.245h-5.5zM1510.247 598.146h5.5v12.245h-5.5zM1474.96 569.605h12.245v5.5h-12.245zM1538.79 569.605h12.244v5.5h-12.244z" class="color445462 svgShape"/><path fill="#34a853" d="M1529.442 547.037h12.245v5.499h-12.245z" class="color445462 svgShape" transform="rotate(-45.001 1535.564 549.787)"/><path fill="#34a853" d="M1484.307 592.172h12.245v5.499h-12.245z" class="color445462 svgShape" transform="rotate(-45 1490.43 594.921)"/><path fill="#34a853" d="M1487.68 543.665h5.499v12.245h-5.499z" class="color445462 svgShape" transform="rotate(-45 1490.43 549.787)"/><path fill="#34a853" d="M1532.815 588.799h5.499v12.245h-5.499z" class="color445462 svgShape" transform="rotate(-44.997 1535.565 594.921)"/><path fill="#34a853" d="M1034.022 513.316h96.604v5.5h-96.604zM911.414 490.964c-21.375-18.77-54.453-26.472-54.784-26.547l1.22-5.363c1.409.32 34.75 8.071 57.193 27.777Z" class="color445462 svgShape"/><path fill="#4285f4" d="M1348.776 518.816h-218.15a2.75 2.75 0 0 1-2.688-2.167l-21.52-99.231 5.376-1.166 21.05 97.064h215.932Z" class="color008fe5 svgShape"/><path fill="#34a853" d="M1719.772 454.179h-58.36a2.749 2.749 0 0 1-2.194-1.093l-29.874-39.56a2.75 2.75 0 0 1 2.194-4.408h72.081v5.5h-66.559l25.721 34.06h56.99ZM1709.35 537.066a15.667 15.667 0 0 1-14.03-22.638l4.53-9.12a15.577 15.577 0 0 1 14.032-8.697h10.724v5.5h-10.724a10.108 10.108 0 0 0-9.106 5.644l-4.53 9.12a10.167 10.167 0 0 0 9.104 14.691ZM1685.902 549.532h-71.906a2.75 2.75 0 0 1-2.717-2.326c-.036-.228-3.712-22.988-16.15-39.406l4.386-3.32c11.018 14.544 15.482 33.078 16.774 39.552h69.613ZM1104.198 395.82h-49.262v-5.5h45.775l-19.046-79.458 5.348-1.28 19.859 82.847a2.75 2.75 0 0 1-2.674 3.39ZM877.039 390.319h41.615v5.5h-41.615zM859.99 397.76h-5.5v-33.87a2.749 2.749 0 0 1 1.358-2.37c5.096-2.994 9.437-8.503 14.463-14.883 6.64-8.429 14.165-17.982 26.112-25.41l2.904 4.67c-11.128 6.92-18.336 16.07-24.695 24.143-4.958 6.293-9.292 11.795-14.642 15.37Z" class="color445462 svgShape"/><path fill="#34a853" d="M1390.982 395.82h-266.87v-5.5h249.336c-12.85-3.382-32.249-10.028-56.2-22.967-8.274-4.47-16.335-9.08-24.13-13.538-34.932-19.978-67.927-38.847-113.317-41.369-24.895-1.383-68.737-2.236-111.646-2.215l-.004-5.5h2.665c42.164 0 84.817.865 109.29 2.223 46.688 2.595 80.23 21.777 115.742 42.086 7.767 4.441 15.799 9.035 24.013 13.473 42.626 23.028 71.073 25.708 71.356 25.732a2.753 2.753 0 0 1 2.515 2.74v2.084a2.75 2.75 0 0 1-2.75 2.75ZM1406.44 551.396h-327.225v-5.5h324.88c5.437-31.742 22.307-43.453 23.04-43.946l3.076 4.559-1.538-2.28 1.547 2.275c-.164.112-16.457 11.605-21.06 42.547a2.75 2.75 0 0 1-2.72 2.345ZM839.002 654.757a82.403 82.403 0 1 1 82.403-82.402 82.496 82.496 0 0 1-82.403 82.402Zm0-159.306a76.903 76.903 0 1 0 76.903 76.903 76.99 76.99 0 0 0-76.903-76.903ZM1513.153 654.757a82.403 82.403 0 1 1 82.404-82.402 82.496 82.496 0 0 1-82.404 82.402Zm0-159.306a76.903 76.903 0 1 0 76.904 76.903 76.99 76.99 0 0 0-76.904-76.903Z" class="color445462 svgShape"/><path fill="#34a853" d="M1034.248 649.257h634.818v5.5h-634.818zM1399.547 621.258h-8v-5.5h8Zm-16 0h-8v-5.5h8Zm-16 0h-8v-5.5h8Zm-16 0h-8v-5.5h8Zm-16 0h-8v-5.5h8Zm-16 0h-8v-5.5h8Zm-16 0h-8v-5.5h8Zm-16 0h-8v-5.5h8Zm-16 0h-8v-5.5h8Zm-16 0h-8v-5.5h8Zm-16 0h-8v-5.5h8Zm-16 0h-8v-5.5h8Zm-16 0h-8v-5.5h8Zm-16 0h-8v-5.5h8Zm-16 0h-8v-5.5h8Zm-16 0h-8v-5.5h8Zm-16 0h-8v-5.5h8Zm-16 0h-8v-5.5h8Zm-16 0h-8v-5.5h8Zm-16 0h-8v-5.5h8Z" class="color445462 svgShape"/><path fill="#4285f4" d="M1956.52 157.679h-48.305a2.75 2.75 0 0 1-2.75-2.75v-48.306a2.75 2.75 0 0 1 2.75-2.75h35.897v5.5h-33.147v42.806h42.806v-14.404h5.5v17.154a2.75 2.75 0 0 1-2.75 2.75Z" class="color008fe5 svgShape"/><path fill="#34a853" d="m2086.827 120.76-.075-5.5h.075Zm-8.075 0h-8v-5.5h8Zm-16 0h-8v-5.5h8Zm-16 0h-8v-5.5h8Zm-16 0h-8v-5.5h8Zm-16 0h-8v-5.5h8Zm-16 0h-8v-5.5h8ZM1990.752 144.199h53.023v5.5h-53.023zM1936.055 144.185a2.75 2.75 0 0 1-1.945-.806l-17.163-17.164 3.889-3.889 15.219 15.219 31.357-31.358 3.889 3.89-33.302 33.302a2.75 2.75 0 0 1-1.944.806Z" class="color445462 svgShape"/><path fill="#4285f4" d="M1956.52 245.296h-48.305a2.75 2.75 0 0 1-2.75-2.75V194.24a2.75 2.75 0 0 1 2.75-2.75h35.897v5.5h-33.147v42.806h42.806v-14.404h5.5v17.154a2.75 2.75 0 0 1-2.75 2.75Z" class="color008fe5 svgShape"/><path fill="#34a853" d="M1990.752 202.878h78.083v5.5h-78.083zM1990.752 231.816h53.023v5.5h-53.023zM1936.055 231.8a2.74 2.74 0 0 1-1.945-.805l-17.163-17.163 3.889-3.889 15.219 15.22 31.357-31.358 3.889 3.888-33.302 33.302a2.74 2.74 0 0 1-1.944.806ZM2027.386 281.209h-7.171v-5.5h7.17Zm-15.171 0h-8v-5.5h8Zm-16 0h-8v-5.5h8Zm-16 0h-8v-5.5h8Zm-16 0h-8v-5.5h8Zm-16 0h-8v-5.5h8Zm-16 0h-8v-5.5h8Zm-16 0h-8v-5.5h8ZM1908.215 307.412h70.726v5.5h-70.726z" class="color445462 svgShape"/><path fill="#34a853" d="M1918.892 400.434h-77.558a2.75 2.75 0 0 1-2.75-2.75V46.604a2.75 2.75 0 0 1 2.75-2.75h58.041v5.5h-55.291v345.58h74.808ZM2121.738 256.579h5.5v105.06h-5.5zM2127.238 174.008h-5.5V49.353h-57.694v-5.5h60.444a2.75 2.75 0 0 1 2.75 2.75Z" class="color445462 svgShape"/><path fill="#34a853" d="M1923.792 371.745h-56.014a2.75 2.75 0 0 1-2.75-2.75V66.64a2.75 2.75 0 0 1 2.75-2.75h32.777v5.5h-30.027v296.856h53.264ZM2095.294 281.676h5.5v28.486h-5.5zM2100.794 199.959h-5.5V69.389h-31.251v-5.5h34a2.75 2.75 0 0 1 2.75 2.75ZM2049.026 78.844h-132.23a2.75 2.75 0 0 1-2.75-2.75V40.148a2.75 2.75 0 0 1 2.75-2.75h26.06a40.15 40.15 0 0 1 80.11 0h26.06a2.75 2.75 0 0 1 2.75 2.75v35.946a2.75 2.75 0 0 1-2.75 2.75Zm-129.48-5.5h126.73V42.898h-25.967a2.75 2.75 0 0 1-2.75-2.75 34.648 34.648 0 1 0-69.295 0 2.75 2.75 0 0 1-2.75 2.75h-25.967Z" class="color445462 svgShape"/><path fill="#34a853" d="M1982.911 54.418a14.996 14.996 0 1 1 14.996-14.996 15.013 15.013 0 0 1-14.996 14.996Zm0-24.492a9.496 9.496 0 1 0 9.496 9.496 9.506 9.506 0 0 0-9.496-9.496ZM1944.588 396.748a2.75 2.75 0 0 1-2.49-3.92l18.441-39.222a2.736 2.736 0 0 1 .544-.774l152.251-152.25a17.444 17.444 0 1 1 24.669 24.669l-152.25 152.25a2.733 2.733 0 0 1-.774.544l-39.222 18.441a2.732 2.732 0 0 1-1.17.262Zm20.724-40.367-14.99 31.882 31.882-14.99 151.91-151.91a11.944 11.944 0 1 0-16.891-16.892Z" class="color445462 svgShape"/><path fill="#34a853" d="M1969.586 347.86h5.499v32.449h-5.499z" class="color445462 svgShape" transform="rotate(-45.001 1972.336 364.084)"/><path fill="#34a853" d="M1935.689 394.934h10.424v5.499h-10.424z" class="color445462 svgShape" transform="rotate(-44.999 1940.901 397.684)"/><path fill="#34a853" d="m2033.885 263.998-3.889-3.889 46.43-46.431a22.494 22.494 0 0 1 31.813 0l17.686 17.685-3.889 3.889-17.685-17.686a17.017 17.017 0 0 0-24.036 0Z" class="color445462 svgShape"/><path fill="#34a853" d="M2098.891 222.25h5.499v29.388h-5.499z" class="color445462 svgShape" transform="rotate(-45 2101.641 236.944)"/><path fill="#34a853" d="M185.865 426.547c-2.642 0-5.28-.063-7.863-.185l.26-5.494c2.502.118 5.053.179 7.585.179l.28-.001v5.5h-.252Zm8.399-.213-.278-5.492c2.6-.132 5.239-.33 7.84-.591l.548 5.473c-2.691.27-5.42.475-8.11.61Zm-24.376-.555c-2.688-.26-5.406-.59-8.078-.984l.801-5.442c2.582.38 5.208.7 7.806.952Zm40.555-1.067-.818-5.44c2.572-.386 5.177-.845 7.74-1.364l1.09 5.39a164.132 164.132 0 0 1-8.012 1.414Zm-56.651-1.302c-2.65-.526-5.32-1.126-7.938-1.783l1.338-5.334a160.27 160.27 0 0 0 7.672 1.723Zm72.588-1.92-1.358-5.33a158.581 158.581 0 0 0 7.56-2.129l1.621 5.256a163.281 163.281 0 0 1-7.823 2.202Zm-88.366-2.043c-2.59-.79-5.188-1.653-7.721-2.567l1.865-5.174c2.448.883 4.958 1.718 7.461 2.481Zm103.896-2.753-1.883-5.168c2.444-.89 4.904-1.856 7.312-2.873l2.139 5.067a162.069 162.069 0 0 1-7.568 2.974Zm-119.201-2.767a164.11 164.11 0 0 1-7.425-3.327l2.373-4.961a158.264 158.264 0 0 0 7.175 3.214Zm134.179-3.556-2.389-4.955a155.588 155.588 0 0 0 6.99-3.588l2.634 4.828a161.937 161.937 0 0 1-7.235 3.715Zm-148.856-3.465a165.83 165.83 0 0 1-7.056-4.049l2.854-4.7a160.149 160.149 0 0 0 6.821 3.913Zm163.131-4.32-2.871-4.692c2.231-1.365 4.452-2.8 6.6-4.266l3.1 4.543a166.32 166.32 0 0 1-6.829 4.415ZM94.13 398.462a164.596 164.596 0 0 1-6.62-4.728l3.304-4.396a160.448 160.448 0 0 0 6.4 4.571Zm190.467-5.04-3.32-4.385a159.838 159.838 0 0 0 6.147-4.9l3.533 4.215a164.97 164.97 0 0 1-6.36 5.07Zm-203.464-4.738a164.149 164.149 0 0 1-6.12-5.36l3.725-4.047a157.204 157.204 0 0 0 5.914 5.18Zm215.925-5.707-3.737-4.037a158.389 158.389 0 0 0 5.635-5.483l3.932 3.846a164.443 164.443 0 0 1-5.83 5.674Zm11.372-11.628-4.116-3.649c1.726-1.946 3.43-3.97 5.067-6.012l4.293 3.439a165.046 165.046 0 0 1-5.244 6.222Zm10.173-12.695-4.457-3.222a159.478 159.478 0 0 0 4.448-6.486l4.611 2.998a165.874 165.874 0 0 1-4.601 6.71ZM58.731 177.644l-4.61-2.998a165.771 165.771 0 0 1 4.6-6.71l4.458 3.223a159.48 159.48 0 0 0-4.448 6.486Zm9.212-12.74-4.293-3.44a164.97 164.97 0 0 1 5.244-6.222l4.116 3.649a158.447 158.447 0 0 0-5.067 6.012Zm10.426-11.77-3.932-3.845a164.272 164.272 0 0 1 5.83-5.674l3.737 4.037a158.477 158.477 0 0 0-5.635 5.483Zm221.17-5.994a169.219 169.219 0 0 0-6.213-4.838l3.28-4.416a177.311 177.311 0 0 1 6.413 4.994Zm-209.638-4.687-3.533-4.215a164.972 164.972 0 0 1 6.36-5.07l3.32 4.386a159.915 159.915 0 0 0-6.147 4.9Zm196.995-4.71a194.223 194.223 0 0 0-6.62-4.29l2.896-4.676a198.079 198.079 0 0 1 6.808 4.413Zm-184.463-4.78-3.1-4.542a166.252 166.252 0 0 1 6.83-4.415l2.87 4.691a158.802 158.802 0 0 0-6.6 4.267Zm171.052-3.531a206.336 206.336 0 0 0-6.946-3.756l2.522-4.888a212.983 212.983 0 0 1 7.133 3.857Zm-157.648-4.67-2.635-4.827a162.049 162.049 0 0 1 7.235-3.715l2.39 4.955a155.534 155.534 0 0 0-6.99 3.588Zm143.616-2.569a200.669 200.669 0 0 0-7.215-3.204l2.133-5.07a209.5 209.5 0 0 1 7.412 3.292Zm-129.467-4.255-2.138-5.067a162.224 162.224 0 0 1 7.567-2.974l1.883 5.168c-2.444.89-4.904 1.856-7.312 2.873Zm114.92-1.863a189.052 189.052 0 0 0-7.442-2.61l1.709-5.227c2.543.832 5.12 1.736 7.66 2.687Zm-100.163-3.515-1.621-5.256a163.25 163.25 0 0 1 7.823-2.202l1.358 5.33a158.649 158.649 0 0 0-7.56 2.128Zm85.179-1.38a171.022 171.022 0 0 0-7.63-1.942l1.23-5.361c2.601.598 5.251 1.272 7.878 2.006Zm-69.963-2.497-1.09-5.391a164.249 164.249 0 0 1 8.012-1.413l.818 5.44c-2.572.386-5.177.845-7.74 1.364Zm54.628-1.013c-2.592-.461-5.204-.853-7.763-1.165l.666-5.46c2.657.325 5.368.731 8.058 1.209Zm-39.086-1.33-.549-5.472c2.691-.27 5.42-.475 8.11-.61l.278 5.492c-2.6.132-5.239.33-7.839.59Zm23.521-.557c-2.543-.159-5.08-.24-7.544-.24l-.28.002v-5.5l.252-.001h.007c2.602 0 5.253.084 7.907.249ZM327.614 324.75h-40.727v-5.5h40.727a5.45 5.45 0 0 0 5.445-5.444V167.123a5.45 5.45 0 0 0-5.445-5.444H103.472a5.45 5.45 0 0 0-5.445 5.444v36.65h-5.5v-36.65a10.956 10.956 0 0 1 10.945-10.944h224.142a10.956 10.956 0 0 1 10.945 10.944v146.683a10.956 10.956 0 0 1-10.945 10.944Z" class="color445462 svgShape"/><path fill="#34a853" d="M335.809 235.06h-44.845v-5.5h42.095v-35.267H111.585v-5.5h224.224a2.75 2.75 0 0 1 2.75 2.75v40.767a2.75 2.75 0 0 1-2.75 2.75Z" class="color445462 svgShape"/><path fill="#4285f4" d="M270.601 381.825H38.18a6.812 6.812 0 0 1-6.804-6.804V220.057a6.812 6.812 0 0 1 6.804-6.805H270.6a6.813 6.813 0 0 1 6.805 6.805V375.02a6.813 6.813 0 0 1-6.805 6.804ZM38.18 218.753a1.306 1.306 0 0 0-1.304 1.305V375.02a1.306 1.306 0 0 0 1.304 1.304H270.6a1.306 1.306 0 0 0 1.305-1.304V220.058a1.306 1.306 0 0 0-1.304-1.305Z" class="color008fe5 svgShape"/><path fill="#34a853" d="M129.31 292.136H65.322a5.415 5.415 0 0 1-5.409-5.41V247.2a5.416 5.416 0 0 1 5.41-5.409h63.986a5.416 5.416 0 0 1 5.41 5.41v39.526a5.415 5.415 0 0 1-5.41 5.409Zm-63.897-5.5h63.806V247.29H65.413Z" class="color445462 svgShape"/><path fill="#34a853" d="M84.374 245.342h5.5v44.044h-5.5zM108.835 245.342h5.5v44.044h-5.5z" class="color445462 svgShape"/><path fill="#34a853" d="M111.585 266.252h20.384v5.5h-20.384zM62.663 262.175h24.461v5.5H62.663zM250.195 271.752h-52.998a2.75 2.75 0 0 1-2.75-2.75v-24.461a2.75 2.75 0 0 1 2.75-2.75h52.998a2.75 2.75 0 0 1 2.75 2.75v24.461a2.75 2.75 0 0 1-2.75 2.75Zm-50.248-5.5h47.498v-18.961h-47.498ZM70.816 335.557h12.23v5.5h-12.23zM91.201 335.557h12.23v5.5h-12.23zM111.585 335.557h12.23v5.5h-12.23zM131.969 335.557h12.23v5.5h-12.23zM152.352 335.557h12.23v5.5h-12.23zM172.736 335.557h12.23v5.5h-12.23zM193.12 335.557h12.23v5.5h-12.23zM213.505 335.557h12.23v5.5h-12.23zM233.889 335.557h12.23v5.5h-12.23zM149.221 632.224v-6.913l-1.412-.117c-5.15-.432-14.17-2.373-18.625-10.395l6.42-2.571c3.095 4.843 10.294 7.368 16.298 7.368 9.312 0 15.098-3.667 15.098-9.57 0-6.512-8.65-8.231-15.156-8.958-11.784-1.25-20.791-3.062-20.791-13.845 0-10.92 12.862-13.239 16.804-13.691l1.364-.155v-6.276h6.855v6.235l1.316.19c7.024 1.013 11.525 3.494 14.356 7.97l-5.801 2.539c-2.753-3.065-8.353-5.263-13.732-5.263-8.892 0-13.993 3.08-13.993 8.45 0 6.411 7.836 7.295 14.132 8.005 12.186 1.418 22.28 3.511 22.28 14.8 0 9.408-8.6 14.21-17.121 14.797l-1.437.1v7.3ZM302.59 570.847a37.203 37.203 0 0 1-37.16-38.954 2.748 2.748 0 0 1 .873-1.887 2.779 2.779 0 0 1 1.92-.782h34.367a2.75 2.75 0 0 1 2.75 2.75v36.123a2.75 2.75 0 0 1-2.75 2.75Zm-31.684-36.123a31.71 31.71 0 0 0 28.934 30.506v-30.506ZM8.77 570.848l-.36-.002a2.75 2.75 0 0 1-1.765-.662 4.376 4.376 0 0 1-.105-.096 2.748 2.748 0 0 1-.871-2.008v-36.106a2.75 2.75 0 0 1 2.75-2.75h34.71a2.75 2.75 0 0 1 1.945.805 2.908 2.908 0 0 1 .85 1.864 36.902 36.902 0 0 1-10.374 27.569 36.862 36.862 0 0 1-26.78 11.386Zm2.399-36.124v30.535a31.373 31.373 0 0 0 20.42-9.614 31.395 31.395 0 0 0 8.858-20.921ZM302.59 668.396h-35.332a2.75 2.75 0 0 1-1.859-.722 6.156 6.156 0 0 1-.116-.113 2.745 2.745 0 0 1-.804-1.89 37.201 37.201 0 0 1 38.145-37.937 2.811 2.811 0 0 1 2.716 2.785v35.127a2.75 2.75 0 0 1-2.75 2.75Zm-32.557-5.5h29.807v-29.623a31.71 31.71 0 0 0-29.807 29.624ZM42.26 668.396H8.419a2.75 2.75 0 0 1-2.75-2.75v-35.144a2.752 2.752 0 0 1 .821-1.961 2.87 2.87 0 0 1 1.974-.789 36.964 36.964 0 0 1 26.172 11.376 36.925 36.925 0 0 1 10.402 26.543 2.748 2.748 0 0 1-.722 1.805c-.053.058-.14.144-.198.198a2.75 2.75 0 0 1-1.858.722Zm-31.091-5.5h28.313a31.421 31.421 0 0 0-8.805-19.95 31.463 31.463 0 0 0-19.508-9.527Z" class="color445462 svgShape"/><path fill="#34a853" d="M149.541 651.259a54.163 54.163 0 1 1 54.162-54.162 54.224 54.224 0 0 1-54.162 54.162Zm0-102.825a48.663 48.663 0 1 0 48.662 48.663 48.718 48.718 0 0 0-48.662-48.663ZM256.32 610.129a11.319 11.319 0 1 1 11.318-11.318 11.332 11.332 0 0 1-11.319 11.318Zm0-17.138a5.819 5.819 0 1 0 5.818 5.82 5.826 5.826 0 0 0-5.819-5.82ZM51.264 610.129a11.319 11.319 0 1 1 11.318-11.318 11.332 11.332 0 0 1-11.318 11.318Zm0-17.138a5.819 5.819 0 1 0 5.818 5.82 5.826 5.826 0 0 0-5.818-5.82ZM327.242 600.123h-5.5v-86.808h-33.4v-5.5h36.15a2.75 2.75 0 0 1 2.75 2.75Z" class="color445462 svgShape"/><path fill="#34a853" d="M343.549 583.31h-5.5v-86.808h-35.46v-5.5h38.21a2.75 2.75 0 0 1 2.75 2.75Z" class="color445462 svgShape"/><path fill="#4285f4" d="M2144.16 642.913h-125.855a2.75 2.75 0 0 1-2.75-2.75V391.97a2.75 2.75 0 0 1 2.75-2.75h128.77v5.5h-126.02v242.694h123.104Z" class="color008fe5 svgShape"/><path fill="#34a853" d="m2147.048 469.776-99.136-.97a2.75 2.75 0 0 1-2.723-2.75V417.9a2.75 2.75 0 0 1 2.75-2.75h.028l99.135.97-.054 5.5-96.359-.942v42.656l96.413.943ZM2147.075 616.982h-99.136a2.75 2.75 0 0 1-2.75-2.75v-118.54a2.75 2.75 0 0 1 2.75-2.75h99.136v5.5h-96.386v113.04h96.386Z" class="color445462 svgShape"/><path fill="#34a853" d="M2085.939 495.692h5.5v118.54h-5.5zM2130.391 495.692h5.5v118.54h-5.5z" class="color445462 svgShape"/><path fill="#34a853" d="M2047.939 533.69h100.481v5.5h-100.481zM2047.939 570.734h100.481v5.5h-100.481zM628.816 649.257h210.185v5.5H628.816zM738.113 621.542h-8v-5.5h8Zm-16 0h-8v-5.5h8Zm-16 0h-8v-5.5h8Zm-16 0h-8v-5.5h8Zm-16 0h-8v-5.5h8Zm-16 0h-6.094v-5.5h6.094ZM533.517 294.627c-10.342-26.668-16.72-76.332 22.78-97.401-13.645-14.62-18.295-29.74-14.217-46.125 5.467-21.957 27.506-33.863 53.608-28.944l-1.017 5.405c-23.092-4.347-42.526 5.877-47.253 24.867-3.825 15.363 1.217 29.633 15.412 43.623l2.832 2.792-3.611 1.664c-39.6 18.256-33.346 66.5-23.408 92.13Z" class="color445462 svgShape"/><path fill="#34a853" d="M596.083 139.001a33.877 33.877 0 0 1 1.578-29.516c5.612-10.415 16.318-18.507 27.273-20.613 20.909-4.017 38.714 4.376 46.366 21.513a48.553 48.553 0 0 1 15.206-6.57 62.726 62.726 0 0 1 32.26.575l-1.54 5.279a57.278 57.278 0 0 0-29.464-.5 44.356 44.356 0 0 0-16.115 7.653l-3 2.205-1.226-3.515c-7.04-20.182-26.026-24.202-41.447-21.24-9.399 1.808-18.61 8.804-23.471 17.823a28.167 28.167 0 0 0-1.338 24.804ZM445.692 414.863l-68.108-61.327 8.012-65.024 5.459.672-7.662 62.182 65.979 59.409-3.68 4.088z" class="color445462 svgShape"/><path fill="#34a853" d="M450.282 455.752h-5.5v-43.576l37.952-76.628-32.557-109.51 5.271-1.567 33.175 111.581-38.341 77.411v42.289zM391.032 218.974l-5.414-.971a67.23 67.23 0 0 1 11.296-24.99c8.297-11.484 24.124-25.364 52.414-26.277 28.176-.89 45.835 10.668 55.702 20.538a66.125 66.125 0 0 1 14.858 22.019l-5.176 1.863a61.863 61.863 0 0 0-13.742-20.165c-13.22-13.122-30.54-19.447-51.464-18.757-49.806 1.607-58.393 46.288-58.474 46.74Z" class="color445462 svgShape"/><path fill="#34a853" d="M367.636 331.698h5.499v25.671h-5.499z" class="color445462 svgShape" transform="rotate(-51.912 370.386 344.533)"/><path fill="#34a853" d="m351.679 233.125-4.06-3.709c10.945-11.98 29.14-16.576 54.068-13.66l-.638 5.464c-23.078-2.698-39.687 1.306-49.37 11.905Z" class="color445462 svgShape"/><path fill="#34a853" d="M482.392 321.804h41.768v5.5h-41.768z" class="color445462 svgShape" transform="rotate(-32.573 503.282 324.554)"/><path fill="#34a853" d="m1848.558 621.378-57.534-51.805 6.777-54.991 5.459.672-6.427 52.149 55.404 49.887-3.679 4.088z" class="color445462 svgShape"/><path fill="#34a853" d="M1853.147 652.949h-5.5V618.69l31.935-64.478-27.373-92.072 5.271-1.567 27.991 94.143-32.324 65.261v32.972zM1792.139 456.148l-5.413-.975c.075-.421 8.072-42.053 54.072-43.537a77.63 77.63 0 0 1 2.462-.04c43.814 0 64.13 38.173 64.334 38.566l-4.883 2.533c-.188-.36-19.05-35.598-59.466-35.598-.752 0-1.504.011-2.27.037-41.475 1.338-48.555 37.476-48.836 39.014Z" class="color445462 svgShape"/><path fill="#34a853" d="M1772.687 540.3h5.5v40.318h-5.5z" class="color445462 svgShape" transform="rotate(-66.53 1775.438 560.46)"/><path fill="#34a853" d="M1755.247 510.205c-4.613-3.624-7.01-9.413-7.123-17.206a39.506 39.506 0 0 1 11.5-28.466 41.575 41.575 0 0 1 29.402-12.323h.093a100.562 100.562 0 0 1 11.618.717l-.64 5.463a94.939 94.939 0 0 0-10.977-.68h-.087a35.563 35.563 0 0 0-25.49 10.68 34.05 34.05 0 0 0-9.919 24.529c.088 6.052 1.777 10.413 5.021 12.962Z" class="color445462 svgShape"/><path fill="#34a853" d="M1876.035 529.503h82.495v5.5h-82.495z" class="color445462 svgShape" transform="rotate(-32.572 1917.282 532.252)"/><path fill="#34a853" d="m518.662 157.144-59.704-80.866h-64.712v42.27h-76.479v-5.5h70.979v-42.27h72.987l61.353 83.098-4.424 3.268zM675.38 480.2a19.598 19.598 0 1 1 19.598-19.597A19.62 19.62 0 0 1 675.38 480.2Zm0-32.193a12.596 12.596 0 1 0 12.596 12.595 12.61 12.61 0 0 0-12.596-12.595Z" class="color445462 svgShape"/><path fill="#34a853" d="M678.768 434.431h21.028v7.001h-21.028z" class="color445462 svgShape" transform="rotate(-56.066 689.282 437.932)"/><path fill="#34a853" d="M646.891 480.278h23.09v7.001h-23.09z" class="color445462 svgShape" transform="rotate(-56.066 658.437 483.778)"/><path fill="#34a853" d="m360.873 662.362-5.506-4.322 4.94-6.293 5.505 4.322Zm9.879-12.586-5.506-4.322 4.938-6.293 5.506 4.322Zm9.878-12.586-5.506-4.322 4.94-6.294 5.505 4.323Zm9.879-12.587-5.506-4.322 4.938-6.293 5.506 4.322Zm9.878-12.585-5.506-4.323 4.94-6.293 5.505 4.323Zm9.879-12.587-5.506-4.323 4.94-6.293 5.505 4.323Zm9.877-12.586-5.505-4.323 4.94-6.293 5.505 4.323Zm9.88-12.586-5.506-4.323 4.939-6.293 5.506 4.322Zm9.876-12.758-5.67-4.106 4.692-6.48 5.67 4.105Zm9.384-12.96-5.67-4.106 4.692-6.479 5.67 4.105Zm9.384-12.959-5.67-4.105 4.691-6.48 5.67 4.105Zm9.384-12.96-5.67-4.105 4.691-6.48 5.67 4.106Zm9.383-12.959-5.67-4.105 4.692-6.48 5.67 4.106Zm9.383-12.959-5.67-4.105 4.693-6.48 5.67 4.105Zm9.384-12.96-5.67-4.105 4.693-6.48 5.67 4.106Zm9.384-12.959-5.67-4.105 4.692-6.48 5.67 4.105Zm9.384-12.96-5.67-4.105 4.692-6.48 5.67 4.106Zm9.383-12.959-5.67-4.105 4.693-6.48 5.67 4.106Zm9.384-12.96-5.67-4.105 4.692-6.48 5.67 4.106Zm9.384-12.959-5.67-4.105 4.692-6.48 5.67 4.106Zm9.384-12.959-5.67-4.105 4.691-6.48 5.67 4.105Zm9.384-12.96-5.67-4.105 4.691-6.48 5.67 4.106Zm9.383-12.959-5.67-4.105 4.692-6.48 5.67 4.105Zm9.384-12.96-5.67-4.105 4.692-6.48 5.67 4.106ZM298.66 141.004h-5.5v-73.37c0-26.878-21.458-49.47-47.83-50.363q-.927-.03-1.864-.03H26.472a53.63 53.63 0 0 0-24.029 5.607L0 17.92a59.088 59.088 0 0 1 26.472-6.179h216.994q1.027 0 2.047.034a54.212 54.212 0 0 1 37.767 17.153 56.155 56.155 0 0 1 15.38 38.706ZM243.466 518.816H26.472a59.111 59.111 0 0 1-25.624-5.768l2.365-4.965a53.665 53.665 0 0 0 23.259 5.233h216.994a54.228 54.228 0 0 0 54.166-54.167v-59.351h5.5v59.351a59.734 59.734 0 0 1-59.666 59.667ZM70.816 441.445H2.286v-265.3h5.5v259.8h63.03v5.5z" class="color445462 svgShape"/><path fill="#34a853" d="M7.786 159.86h-5.5V71.736H270.89v45.437h-5.5V77.236H7.786v82.624zM159.952 492.204h-33.517v-33.517h33.517Zm-28.017-5.5h22.517v-22.517h-22.517ZM119.851 42.422h32.015v5.5h-32.015zM87.124 435.945H278.76v5.5H87.124zM1725.509 415.999l-2.58-4.857a180.44 180.44 0 1 0-226.017-47.333l-4.312 3.414a185.942 185.942 0 1 1 232.909 48.776Z" class="color445462 svgShape"/><path fill="#4285f4" d="m1673.741 386.588-1.428-5.31a136.672 136.672 0 0 0 97.914-102.34l1.805-8.203 5.371 1.182-1.804 8.202a139.94 139.94 0 0 1-29.068 59.69 142.61 142.61 0 0 1-72.79 46.779ZM1552.217 363.872a136.074 136.074 0 0 1-56.044-96.31c-3.918-37.842 5.502-73.261 27.241-102.428a142.347 142.347 0 0 1 83.223-53.863l1.193 5.369c-59.143 13.142-114.608 69.008-106.187 150.356a130.568 130.568 0 0 0 53.785 92.41ZM1773.306 238.18c-.223-2.598-.525-5.22-.898-7.792l5.443-.79c.388 2.678.703 5.408.935 8.114Zm-2.246-15.523a135.885 135.885 0 0 0-1.792-7.636l5.316-1.412a141.743 141.743 0 0 1 1.865 7.947Zm-4.024-15.156a137.414 137.414 0 0 0-2.658-7.38l5.119-2.012a143.76 143.76 0 0 1 2.766 7.677Zm-5.734-14.59a138.481 138.481 0 0 0-3.486-7.028l4.856-2.583a143.957 143.957 0 0 1 3.624 7.307Zm-7.365-13.843a138.678 138.678 0 0 0-4.261-6.583l4.531-3.119a144.984 144.984 0 0 1 4.43 6.845Zm-8.89-12.91a138.116 138.116 0 0 0-4.983-6.053l4.145-3.615a143.468 143.468 0 0 1 5.182 6.295Zm-10.3-11.81a137.848 137.848 0 0 0-5.64-5.44l3.703-4.067a141.88 141.88 0 0 1 5.868 5.662Zm-11.58-10.548a135.645 135.645 0 0 0-6.223-4.755l3.211-4.465a140.84 140.84 0 0 1 6.477 4.948Zm-12.709-9.142a136.89 136.89 0 0 0-6.728-4.002l2.674-4.806a141.23 141.23 0 0 1 7.001 4.166Zm-13.686-7.613a134.828 134.828 0 0 0-7.153-3.2l2.098-5.083a139.71 139.71 0 0 1 7.446 3.33Zm-14.481-5.982a136.287 136.287 0 0 0-7.475-2.353l1.498-5.291c2.602.736 5.22 1.56 7.78 2.45Zm-15.086-4.278-.402-.09a136.481 136.481 0 0 0-7.288-1.397l.888-5.428c2.534.415 5.09.905 7.597 1.457l.418.093Zm-54.496-.982-1.012-5.407c2.657-.497 5.37-.922 8.06-1.265l.695 5.455c-2.585.33-5.19.74-7.743 1.217Zm39.033-1.553a136.892 136.892 0 0 0-7.817-.597l.262-5.494c2.709.13 5.445.338 8.133.622Zm-23.488-.43-.379-5.486c2.702-.187 5.445-.296 8.152-.324l.059 5.5c-2.602.027-5.236.132-7.832.31Z" class="color008fe5 svgShape"/><path fill="#4285f4" d="m1785.81 294.136-12.56-19.642-20.373 13.027-2.963-4.634 25.008-15.989 15.52 24.275-4.632 2.963z" class="color008fe5 svgShape"/><path fill="#34a853" d="M1508.865 211.149h5.499v25.444h-5.499z" class="color445462 svgShape" transform="rotate(-77.593 1511.615 223.871)"/><path fill="#34a853" d="M1504.561 285.748h21.614v5.499h-21.614z" class="color445462 svgShape" transform="rotate(-17.592 1515.368 288.498)"/><path fill="#34a853" d="M1540.302 341.648h21.614v5.499h-21.614z" class="color445462 svgShape" transform="rotate(-47.59 1551.11 344.398)"/><path fill="#34a853" d="M1673.544 361.128h5.499v21.614h-5.499z" class="color445462 svgShape" transform="rotate(-17.594 1676.294 371.935)"/><path fill="#34a853" d="M1729.444 325.387h5.499V347h-5.499z" class="color445462 svgShape" transform="rotate(-47.595 1732.193 336.194)"/><path fill="#34a853" d="M1596.055 116.766h5.499v21.614h-5.499z" class="color445462 svgShape" transform="rotate(-17.594 1598.805 127.573)"/><path fill="#34a853" d="M1540.156 152.507h5.499v21.613h-5.499z" class="color445462 svgShape" transform="rotate(-47.595 1542.905 163.314)"/><path fill="#34a853" d="M1583.413 202.104h5.5v76.33h-5.5z" class="color445462 svgShape" transform="rotate(-77.594 1586.163 240.27)"/><path fill="#34a853" d="M1664.121 255.27h5.5v49.409h-5.5z" class="color445462 svgShape" transform="rotate(-45.704 1666.872 279.975)"/><path fill="#34a853" d="M1613.657 199.3h71.241v5.5h-71.241z" class="color445462 svgShape" transform="rotate(-77.592 1649.278 202.05)"/><path fill="#34a853" d="M1638.349 269.767a18.018 18.018 0 1 1 17.591-14.148 17.981 17.981 0 0 1-17.591 14.148Zm-.029-30.54a12.518 12.518 0 1 0 12.25 15.21 12.536 12.536 0 0 0-12.25-15.21Z" class="color445462 svgShape"/><path fill="#4285f4" d="m1138.423 255.927-1.993-2.095c-3.727-3.919-91.275-96.556-91.275-147.066a93.268 93.268 0 1 1 186.536 0c0 50.51-87.548 143.147-91.275 147.066Zm0-236.93a87.867 87.867 0 0 0-87.768 87.769c0 44.262 74.525 126.822 87.768 141.14 13.243-14.32 87.768-96.887 87.768-141.14a87.868 87.868 0 0 0-87.768-87.769Z" class="color008fe5 svgShape"/><path fill="#34a853" d="M1138.455 149.673a43.473 43.473 0 0 1-5.277-.323 43.164 43.164 0 1 1 5.277.323Zm-.058-80.898a37.713 37.713 0 1 0 4.604.282 37.753 37.753 0 0 0-4.604-.282ZM1722.522 652.95h-5.5a30.15 30.15 0 0 1 44.519-26.508 32.602 32.602 0 0 1 33.356-9.353l-1.554 5.275a27.103 27.103 0 0 0-29.037 9.33l-1.557 1.99-2.114-1.382a24.647 24.647 0 0 0-38.113 20.647Z" class="color445462 svgShape"/><path fill="#34a853" d="M1705.89 649.257h246.149v5.5H1705.89zM1753.484 574.331a27.214 27.214 0 1 1 22.565-42.432l-4.557 3.08a21.715 21.715 0 1 0-18.008 33.852Z" class="color445462 svgShape"/><path fill="#34a853" d="M1746.84 597.672a19.302 19.302 0 0 1-11.566-34.754l3.3 4.4a13.802 13.802 0 1 0 19.287 19.362l4.389 3.314a19.157 19.157 0 0 1-15.41 7.678ZM1963.984 541.63v-5.5a24.017 24.017 0 0 0 8.61-46.439l-3.034-1.167 1.654-2.8a35.893 35.893 0 1 0-66.813-18.229h-5.5a41.395 41.395 0 1 1 78.507 18.333 29.515 29.515 0 0 1-13.424 55.802Z" class="color445462 svgShape"/><path fill="#34a853" d="M1902.384 614.166a65.55 65.55 0 0 1-20.725-3.583l1.734-5.219c21.627 7.19 40.492 2.474 57.668-14.416 17.962-17.66 20.614-42.663 17.106-60.172l5.393-1.08c3.79 18.918.883 45.975-18.644 65.174-13.116 12.897-27.16 19.296-42.532 19.296ZM2001.026 653.227h-5.5a20.315 20.315 0 0 0-16.853-20.06l-2.639-.459.39-2.65a16.323 16.323 0 0 0 .197-2.404 16.485 16.485 0 1 0-32.97 0 16.329 16.329 0 0 0 1.57 6.98l2.064 4.398-4.833-.494c-.39-.039-.784-.06-1.174-.06a11.385 11.385 0 0 0-11.373 11.374h-5.5a16.898 16.898 0 0 1 14.45-16.7 21.702 21.702 0 0 1-.704-5.498 21.985 21.985 0 1 1 43.97 0q0 .322-.012.655a25.803 25.803 0 0 1 18.917 24.918ZM1251.772 151.304h-22.831v-5.5h17.331V29.917h225.154l45.887 45.886-3.889 3.888-44.276-44.274h-217.376v115.887z" class="color445462 svgShape"/><path fill="#34a853" d="M1414.05 45.172h5.5v295.331h-5.5zM1379.994 45.172h5.5v295.331h-5.5zM1358.918 103.401h-27.175V48.807h27.175Zm-21.675-5.5h16.175V54.307h-16.175ZM1316.545 103.401h-27.175V48.807h27.175Zm-21.675-5.5h16.175V54.307h-16.175ZM1358.918 185.938h-27.175v-54.596h27.175Zm-21.675-5.5h16.175v-43.596h-16.175ZM1316.545 185.938h-27.175v-54.596h27.175Zm-21.675-5.5h16.175v-43.596h-16.175ZM1358.918 268.473h-27.175v-54.596h27.175Zm-21.675-5.5h16.175v-43.596h-16.175ZM1316.545 268.473h-27.175v-54.596h27.175Zm-21.675-5.5h16.175v-43.596h-16.175ZM1028.796 159.86h-5.5V40.183h-28.313l-24.634 24.635H868.25l-.496-15.892h-40.543l.497 14.584H711.445v23.018h-5.5V58.01h116.072l-.497-14.584h51.564l.496 15.892h94.491l24.635-24.635h36.09V159.86z" class="color445462 svgShape"/><path fill="#34a853" d="M878.543 74.997h73.166v5.5h-73.166z" class="color445462 svgShape"/><path fill="#4285f4" d="M302.59 668.396H8.419a2.75 2.75 0 0 1-2.75-2.75V531.974a2.75 2.75 0 0 1 2.75-2.75h294.17a2.75 2.75 0 0 1 2.75 2.75v133.672a2.75 2.75 0 0 1-2.75 2.75Zm-291.421-5.5h288.67V534.724H11.17Z" class="color008fe5 svgShape"/></svg>